<?xml version="1.0" encoding="utf-8"?>
<!-- Generator: Adobe Illustrator 23.0.1, SVG Export Plug-In . SVG Version: 6.00 Build 0)  -->
<svg version="1.1" xmlns="http://www.w3.org/2000/svg" xmlns:xlink="http://www.w3.org/1999/xlink" x="0px" y="0px"
	 viewBox="0 0 181.42 181.42" style="enable-background:new 0 0 181.42 181.42;" xml:space="preserve">
<style type="text/css">
	.st0{fill:#3E74B6;}
	.st1{fill:#939598;stroke:#939598;stroke-width:0.25;stroke-miterlimit:10;}
	.st2{fill:#FFFFFF;}
</style>
<g id="Vrstva_1">
	<path class="st0" d="M161.84,178.41H19.87c-9.3,0-16.84-7.54-16.84-16.84V19.6c0-9.3,7.54-16.84,16.84-16.84h141.97
		c9.3,0,16.84,7.54,16.84,16.84v141.97C178.68,170.87,171.14,178.41,161.84,178.41z"/>
</g>
<g id="Vrstva_4">
	<line class="st1" x1="14.68" y1="3.67" x2="14.3" y2="177.47"/>
	<line class="st1" x1="21.78" y1="2.76" x2="21.4" y2="178.41"/>
	<line class="st1" x1="29.19" y1="2.76" x2="28.81" y2="178.41"/>
	<line class="st1" x1="36.06" y1="2.76" x2="35.69" y2="178.41"/>
	<line class="st1" x1="43.47" y1="2.76" x2="43.09" y2="178.41"/>
	<line class="st1" x1="50.54" y1="2.76" x2="50.16" y2="178.41"/>
	<line class="st1" x1="57.95" y1="2.76" x2="57.57" y2="178.41"/>
	<line class="st1" x1="64.82" y1="2.76" x2="64.44" y2="178.41"/>
	<line class="st1" x1="72.23" y1="2.76" x2="71.85" y2="178.41"/>
	<line class="st1" x1="79.26" y1="2.69" x2="78.88" y2="178.34"/>
	<line class="st1" x1="86.67" y1="2.69" x2="86.29" y2="178.34"/>
	<line class="st1" x1="93.54" y1="2.69" x2="93.16" y2="178.34"/>
	<line class="st1" x1="100.95" y1="2.79" x2="100.57" y2="178.44"/>
	<line class="st1" x1="108.21" y1="2.81" x2="107.83" y2="178.46"/>
	<line class="st1" x1="115.62" y1="2.81" x2="115.24" y2="178.46"/>
	<line class="st1" x1="122.49" y1="2.81" x2="122.12" y2="178.46"/>
	<line class="st1" x1="129.9" y1="2.81" x2="129.52" y2="178.46"/>
	<line class="st1" x1="136.82" y1="2.78" x2="136.44" y2="178.43"/>
	<line class="st1" x1="144.23" y1="2.78" x2="143.85" y2="178.43"/>
	<line class="st1" x1="151.1" y1="2.78" x2="150.72" y2="178.43"/>
	<line class="st1" x1="158.51" y1="2.78" x2="158.13" y2="178.43"/>
	<line class="st1" x1="165.7" y1="3.34" x2="165.32" y2="178.05"/>
	<line class="st1" x1="173.06" y1="7.23" x2="172.7" y2="174.38"/>
	<line class="st1" x1="7.39" y1="8.31" x2="7.21" y2="172.62"/>
	<line class="st1" x1="4.02" y1="14.48" x2="177.82" y2="14.48"/>
	<line class="st1" x1="3.1" y1="21.48" x2="178.74" y2="21.48"/>
	<line class="st1" x1="3.1" y1="28.67" x2="178.74" y2="28.67"/>
	<line class="st1" x1="3.1" y1="35.97" x2="178.74" y2="35.97"/>
	<line class="st1" x1="3" y1="43.16" x2="178.64" y2="43.16"/>
	<line class="st1" x1="3" y1="50.36" x2="178.64" y2="50.36"/>
	<line class="st1" x1="3" y1="57.56" x2="178.64" y2="57.56"/>
	<line class="st1" x1="3.1" y1="64.85" x2="178.74" y2="64.85"/>
	<line class="st1" x1="3" y1="72.05" x2="178.64" y2="72.05"/>
	<line class="st1" x1="3" y1="79.04" x2="178.64" y2="79.04"/>
	<line class="st1" x1="3" y1="86.24" x2="178.64" y2="86.24"/>
	<line class="st1" x1="3" y1="93.53" x2="178.64" y2="93.53"/>
	<line class="st1" x1="3" y1="100.73" x2="178.64" y2="100.73"/>
	<line class="st1" x1="3.1" y1="107.83" x2="178.74" y2="107.83"/>
	<line class="st1" x1="3.1" y1="115.02" x2="178.74" y2="115.02"/>
	<line class="st1" x1="3" y1="122.32" x2="178.64" y2="122.32"/>
	<line class="st1" x1="3.1" y1="129.51" x2="178.74" y2="129.51"/>
	<line class="st1" x1="3" y1="136.71" x2="178.64" y2="136.71"/>
	<line class="st1" x1="3.1" y1="143.91" x2="178.74" y2="143.91"/>
	<line class="st1" x1="3" y1="151.2" x2="178.64" y2="151.2"/>
	<line class="st1" x1="3.1" y1="158.4" x2="178.74" y2="158.4"/>
	<line class="st1" x1="3.8" y1="165.49" x2="178.04" y2="165.49"/>
	<line class="st1" x1="7.35" y1="172.69" x2="174.49" y2="172.69"/>
	<line class="st1" x1="8.46" y1="7.38" x2="172.78" y2="7.38"/>
</g>
<g id="Vrstva_2">
	<path d="M62.2,154.79c-2.18,0.78-4.17,1.64-6.24,2.21c-2.25,0.61-4.56,0.76-6.93,0.52c-3.14-0.31-6.07-1.2-8.85-2.61
		c-5.57-2.84-9.45-7.24-11.55-13.13c-0.52-1.46-0.69-3.04-1.08-4.54c-0.07-0.28-0.42-0.66-0.68-0.7c-3.7-0.51-6.61-2.5-9.3-4.89
		c-3.73-3.32-6.27-7.41-7.43-12.28c-0.67-2.8-0.77-5.66-0.44-8.55c0.34-2.99,1.16-5.8,2.45-8.5c0.1-0.21-0.03-0.7-0.23-0.87
		c-3.15-2.9-4.85-6.62-5.92-10.65c-1.02-3.86-0.84-7.75,0-11.64c0.69-3.22,2-6.17,3.95-8.79c0.98-1.32,2.13-2.53,3.28-3.71
		c0.72-0.73,1.63-1.26,2.36-1.98c0.27-0.27,0.43-0.83,0.38-1.23c-0.55-4.5,0.06-8.89,1.67-13.05c2.98-7.73,8.43-13.05,16.51-15.22
		c1.87-0.5,2.38-1.2,2.88-2.94c1.28-4.48,4.08-7.98,8.05-10.5c4.18-2.65,8.71-4.13,13.67-3.79c2.37,0.16,4.71,0.77,7.05,1.26
		c0.59,0.12,0.93,0.23,1.29-0.4c2.88-4.98,7.39-7.86,12.78-9.36c4.81-1.34,9.69-1.21,14.54,0.06c3.33,0.87,6.26,2.48,9,4.53
		c0.38,0.28,1.15,0.41,1.56,0.22c2.91-1.33,5.96-1.87,9.13-2.11c5.42-0.41,10.26,1.16,14.76,4c2.46,1.55,4.56,3.57,6.12,6.02
		c0.87,1.36,1.5,2.92,2,4.46c0.31,0.94,0.77,1.55,1.65,1.85c3.83,1.32,7.1,3.54,9.79,6.51c1.31,1.45,2.2,3.27,3.33,4.89
		c0.23,0.32,0.64,0.61,1.02,0.72c7.22,2.03,12.63,6.37,16.14,12.95c1.96,3.66,2.24,7.69,1.67,11.76c-0.17,1.19-0.72,2.32-0.91,3.51
		c-0.1,0.65-0.05,1.56,0.33,2.03c3.37,4.18,4.92,8.97,5.24,14.28c0.32,5.23-0.91,10.05-3.35,14.63c-0.14,0.27-0.15,0.74,0,1.01
		c2.12,3.99,2.79,8.29,2.44,12.7c-0.6,7.6-4.13,13.62-10.22,18.22c-2.24,1.69-4.81,2.47-7.38,3.28c-0.66,0.21-1.03,0.48-1.27,1.04
		c-2.1,4.92-5.54,8.63-10.2,11.22c-0.73,0.4-1.59,0.57-2.29,1c-0.45,0.28-0.96,0.84-1,1.32c-0.23,2.87-1.62,5.27-3.18,7.52
		c-2.42,3.48-5.69,6.06-9.55,7.85c-4.18,1.94-8.59,2.74-13.16,2.32c-3.66-0.34-7.2-1.16-10.37-3.19c-1.53-0.98-1.78-0.89-3.11,0.45
		c-1.67,1.68-3.56,3.05-5.71,4.05c-2.74,1.27-5.6,2.05-8.61,2.36c-4.71,0.49-9.27-0.23-13.48-2.26c-5.64-2.72-10.02-6.84-12.2-12.93
		C62.48,155.35,62.32,155.05,62.2,154.79z M76.39,116.94c12.11,0.13,21.87-10.26,21.58-22.16C97.7,83.53,87.9,74.42,76.91,74.27
		c-12.03-0.16-22.11,9.09-22.11,21.36C54.81,108.27,65.14,116.78,76.39,116.94z M97.73,105.46c-0.16,0.3-0.28,0.56-0.42,0.8
		c-0.14,0.24-0.33,0.46-0.47,0.7c-3.19,5.69-8,9.29-14.25,11.04c-0.3,0.08-0.65,0.29-0.8,0.54c-2,3.23-3.07,6.76-3.08,10.55
		c-0.03,6.23,2.19,11.54,6.92,15.65c5.82,5.05,12.44,7.08,20.1,5.08c9.15-2.39,15.69-9.85,16.62-19.21
		c0.51-5.11-0.85-9.84-3.87-14.01c-0.83-1.15-1.68-2.4-3.46-2.47c-1.59-0.06-3.2-0.34-4.74-0.76
		C105.32,112.06,101.32,109.16,97.73,105.46z M96.28,42.39c-6.01,0.12-11.56,2.47-16.08,7.36c-5.11,5.52-6.76,14.79-3.63,21.63
		c0.15,0.34,0.61,0.66,0.98,0.75c1.49,0.35,3.03,0.53,4.51,0.91c6.57,1.69,11.5,5.57,14.93,11.38c0.31,0.53,0.62,0.73,1.22,0.72
		c6.75-0.2,12.36-2.69,16.48-8.16c3.82-5.08,5.06-10.8,3.91-17c-0.65-3.48-2.28-6.55-4.59-9.23
		C109.5,45.49,103.89,42.48,96.28,42.39z M120.89,67.36c3.7,0.73,6.96,1.97,9.82,4.1c1.12,0.83,2.25,1.52,3.66,1.11
		c1.64-0.48,3.32-0.93,4.84-1.67c3.57-1.74,6.79-3.98,9.08-7.32c1.93-2.82,3.11-5.92,3.67-9.3c0.68-4.13,0.35-8.12-1.23-11.98
		c-1.56-3.82-4.13-6.86-7.51-9.19c-5.92-4.09-12.39-5.64-19.33-3.28c-6.5,2.21-11.59,6.19-14.23,12.83
		c-0.41,1.04-0.22,1.52,0.63,2.13c1.53,1.11,3.11,2.2,4.39,3.57c4.25,4.54,6.59,9.9,6.45,16.21
		C121.09,65.49,120.97,66.42,120.89,67.36z M56.7,82.86c-5.97-4.51-12.17-8.18-20.16-6.39c-6.54,1.46-11.13,5.31-13.88,11.38
		c-1.65,3.64-2.05,7.49-1.88,11.44c0.25,5.6,2.26,10.54,6.15,14.5c4.55,4.63,10.13,7.03,16.77,6.09c2.25-0.32,4.67-0.41,6.24-2.53
		c0.35-0.48,0.74-0.95,1.18-1.34c2.24-1.96,4.5-3.9,6.77-5.85C51.66,101.55,51.12,92.51,56.7,82.86z M86.99,10.4
		c-2.1,0.35-4.25,0.53-6.29,1.08c-6.39,1.72-10.93,5.69-13.72,11.68c-2.61,5.61-2.71,11.19,0.33,16.66
		c0.47,0.85,1.36,1.75,2.25,2.04c3.44,1.13,6.66,2.59,9.43,4.98c0.22,0.19,0.95,0.16,1.16-0.05c3.08-3.14,6.8-5.11,11.11-5.84
		c2.24-0.38,4.56-0.71,6.79-0.5c2.87,0.27,5.7,1.05,8.53,1.71c0.76,0.18,0.98-0.04,1.25-0.65c1.63-3.79,2.61-7.68,2.07-11.85
		c-0.78-6.06-3.75-10.9-8.55-14.5C97.16,12.04,92.3,10.59,86.99,10.4z M120.47,69.71c-0.58,1.6-1,3.18-1.7,4.61
		c-3.89,7.88-10.37,12.02-19.01,12.89c-1.03,0.1-1.13,0.32-0.93,1.3c0.47,2.33,0.95,4.69,1.02,7.05c0.06,2.12-0.41,4.26-0.68,6.38
		c-0.11,0.85-0.42,1.67,0.36,2.39c0.8,0.75,1.49,1.62,2.33,2.31c6.12,4.98,13,7.09,20.85,5.41c11.18-2.39,18.53-12.74,16.59-24.66
		c-0.81-4.95-3.47-9.01-7.23-12.32C128.76,72.16,124.9,70.38,120.47,69.71z M139.96,100.84c-0.06-0.05,0.03,0.09,0.16,0.13
		c4.83,1.68,8.94,4.39,12.19,8.37c0.25,0.31,0.88,0.51,1.3,0.46c6.39-0.84,11.58-3.75,15.25-9.11c3.25-4.76,4.79-10.04,4.24-15.82
		c-0.19-1.98-0.49-3.98-1.04-5.88c-1.18-4.09-3.68-7.4-6.72-10.29c-3.71-3.52-8.29-5.01-13.32-5.23c-0.51-0.02-1.14,0.3-1.53,0.66
		c-0.64,0.58-1.13,1.33-1.7,2c-2.88,3.39-6.29,6.04-10.53,7.52c-1.08,0.38-2.19,0.68-3.37,1.05
		C141.92,82.41,143,91.15,139.96,100.84z M120.29,142.18c0.65,0.53,1.24,1.1,1.91,1.55c4.69,3.12,9.82,4.36,15.44,3.57
		c4.31-0.61,8.13-2.34,11.18-5.39c3.67-3.67,6.21-8.02,6.71-13.35c0.3-3.16,0.43-6.32-0.36-9.43c-1.03-4.03-3.28-7.36-6.09-10.32
		c-2.6-2.74-5.87-4.42-9.44-5.54c-0.38-0.12-1,0.02-1.29,0.29c-0.5,0.46-0.82,1.12-1.25,1.67c-3.73,4.74-8.53,7.72-14.5,8.77
		c-0.98,0.17-1.96,0.34-3.08,0.53C125.76,123.61,126.12,132.79,120.29,142.18z M78.83,119.14c-1.54-0.09-3.22-0.14-4.89-0.3
		c-5.23-0.52-9.81-2.51-13.64-6.16c-0.21-0.2-0.72-0.34-0.96-0.23c-2.71,1.28-5.08,3.04-6.96,5.36c-3.74,4.61-5.24,9.87-4.48,15.81
		c0.61,4.78,2.49,8.87,5.93,12.24c3.24,3.17,7.11,5.17,11.59,5.8c4.67,0.67,9.02-0.43,12.94-3.02c1.41-0.93,2.6-2.21,3.84-3.38
		c0.16-0.15,0.15-0.76-0.02-0.94c-1.6-1.73-2.69-3.76-3.56-5.92c-1.65-4.09-2.37-8.3-1.4-12.67
		C77.71,123.45,78.32,121.19,78.83,119.14z M54.6,43.13c-1.57-1.7-3.41-2.85-5.33-3.89c-5.15-2.8-10.45-3.55-16.07-1.47
		c-6.53,2.42-10.95,6.92-13.49,13.34c-1.77,4.49-2.31,9.13-1.22,13.84c1.11,4.79,4.05,8.39,7.9,11.35c1.3,1,2.46,1.01,3.86,0.22
		c3.05-1.71,6.38-2.5,9.85-2.68c1.1-0.06,2.21-0.01,3.25-0.01C39.3,60.65,42.28,50.24,54.6,43.13z M77.97,48.9
		c-0.13-0.14-0.26-0.31-0.42-0.44c-4.88-4.06-10.47-5.66-16.73-4.68c-4.12,0.64-7.77,2.37-10.81,5.28
		c-3.54,3.38-5.52,7.51-6.14,12.38c-0.48,3.74-0.15,7.33,1.4,10.78c0.65,1.45,1.61,2.67,3.13,3.27c3.04,1.19,5.83,2.78,8.38,4.81
		c1.07,0.86,1.45,0.86,2.39-0.16c3.04-3.3,6.64-5.73,10.97-6.98c1.33-0.38,2.7-0.63,4.13-0.95C71.6,63.79,72.59,56.01,77.97,48.9z
		 M107.11,151.73c-8.48,2.16-16.03,0.46-22.78-5.21c-5.35,5.69-11.91,8.14-19.72,7.41c0.09,0.48,0.11,0.8,0.21,1.09
		c1.15,3.43,3.31,6.16,6.06,8.44c5.22,4.33,11.3,6.02,17.9,5.14c6.98-0.94,12.6-4.41,16.34-10.55
		C106.28,156.14,107.05,154.09,107.11,151.73z M47.39,121.63c-0.59,0-1-0.08-1.36,0.01c-3.38,0.9-6.74,0.47-10.09-0.19
		c-1.6-0.31-2.67,0.2-3.51,1.61c-2.51,4.2-3.14,8.77-2.74,13.55c0.39,4.65,2.43,8.56,5.59,11.86c3.58,3.75,8.02,5.9,13.18,6.7
		c3.95,0.61,7.59-0.18,11.14-1.77c0.26-0.12,0.45-0.38,0.76-0.66c-5.98-2.74-10.74-6.53-12.92-12.86
		C45.36,133.85,45.05,127.77,47.39,121.63z M105.85,161.13c3.71,3.5,11.1,4.89,17.74,3.21c7.97-2.01,13.96-6.42,16.11-14.95
		c-7.64,1.01-14.76-0.26-20.89-5.44c-2.41,2.58-5.18,4.7-8.36,6.29c-0.46,0.23-0.88,0.92-0.97,1.46
		C108.92,155.1,107.92,158.31,105.85,161.13z M65.29,40.9c-3.45-6.61-2.77-13.04-0.06-19.51c-5.34-1.66-10.52-1.85-15.6,0.42
		c-4.34,1.93-7.76,4.92-9.87,9.24c-0.53,1.07-1.05,2.19-0.88,3.42c0.17,0.06,0.24,0.1,0.3,0.1c6.44,0.18,12.05,2.36,16.77,6.82
		c0.45,0.43,1.25,0.68,1.88,0.68c1.07-0.01,2.14-0.28,3.2-0.45C62.37,41.39,63.71,41.16,65.29,40.9z M16.54,66.43
		c-0.92,0.8-1.66,1.34-2.28,2c-3.39,3.58-5.68,7.78-6.38,12.67c-0.96,6.65,0.33,12.82,4.82,18.04c1.68,1.96,3.7,3.53,6.47,4.29
		c-1.08-4.54-0.78-8.9,0.46-13.2c1.24-4.31,3.35-8.13,6.69-11.37C21.88,75.57,18.36,71.78,16.54,66.43z M14.19,103.57
		c-2.33,4.45-3.14,9.22-2.1,14.27c1.44,7.01,5.45,12.06,11.73,15.35c0.98,0.52,2.11,0.77,3.37,1.22c0.45-5.39,1.52-10.24,4.73-14.35
		c-0.75-0.43-1.43-0.8-2.08-1.21c-4.38-2.78-7.69-6.43-9.26-11.48c-0.25-0.79-0.73-1.26-1.53-1.58
		C17.41,105.14,15.85,104.34,14.19,103.57z M112.11,34.44c3.06-2.93,6.53-4.99,10.41-6.4c3.89-1.41,7.92-1.69,12.09-1.21
		c-2.76-10.18-18.56-15.8-28.44-10.38C110.52,21.63,112.61,27.57,112.11,34.44z M157.09,132.4c6.72-2.2,11.26-6.71,13.77-13.2
		c2.51-6.5,1.24-14.2-0.89-16.48c-4.01,4.9-9.11,8.01-15.44,9.23C158.01,118.5,158.74,125.25,157.09,132.4z M167.69,67.79
		c4.07-11.61-4.83-21.8-14.3-24.36c1.65,5.98,1.51,11.83-1.32,17.61C158.12,61.43,163.18,63.86,167.69,67.79z"/>
	<path class="st2" d="M76.39,116.94c-11.25-0.16-21.58-8.67-21.58-21.31c0-12.27,10.07-21.52,22.11-21.36
		c10.99,0.15,20.78,9.26,21.06,20.51C98.26,106.68,88.5,117.07,76.39,116.94z"/>
	<path class="st2" d="M97.73,105.46c3.59,3.7,7.6,6.6,12.56,7.92c1.54,0.41,3.15,0.7,4.74,0.76c1.79,0.07,2.63,1.32,3.46,2.47
		c3.02,4.17,4.38,8.9,3.87,14.01c-0.93,9.37-7.47,16.82-16.62,19.21c-7.67,2-14.28-0.03-20.1-5.08c-4.74-4.11-6.95-9.42-6.92-15.65
		c0.02-3.79,1.08-7.32,3.08-10.55c0.16-0.25,0.5-0.46,0.8-0.54c6.25-1.75,11.05-5.35,14.25-11.04c0.14-0.24,0.32-0.46,0.47-0.7
		C97.45,106.02,97.57,105.77,97.73,105.46z"/>
	<path class="st2" d="M96.28,42.39c7.61,0.1,13.22,3.1,17.73,8.34c2.31,2.68,3.95,5.75,4.59,9.23c1.15,6.2-0.08,11.92-3.91,17
		c-4.12,5.47-9.73,7.96-16.48,8.16c-0.6,0.02-0.91-0.18-1.22-0.72c-3.43-5.81-8.35-9.7-14.93-11.38c-1.48-0.38-3.02-0.56-4.51-0.91
		c-0.37-0.09-0.83-0.41-0.98-0.75c-3.13-6.84-1.48-16.1,3.63-21.63C84.72,44.86,90.27,42.51,96.28,42.39z"/>
	<path class="st2" d="M120.89,67.36c0.08-0.94,0.2-1.87,0.23-2.8c0.15-6.31-2.2-11.67-6.45-16.21c-1.28-1.37-2.86-2.47-4.39-3.57
		c-0.85-0.61-1.04-1.09-0.63-2.13c2.64-6.64,7.73-10.62,14.23-12.83c6.94-2.36,13.41-0.8,19.33,3.28c3.38,2.33,5.95,5.38,7.51,9.19
		c1.58,3.86,1.92,7.85,1.23,11.98c-0.56,3.38-1.74,6.48-3.67,9.3c-2.29,3.34-5.51,5.58-9.08,7.32c-1.52,0.74-3.2,1.19-4.84,1.67
		c-1.42,0.41-2.55-0.28-3.66-1.11C127.84,69.34,124.59,68.09,120.89,67.36z"/>
	<path class="st2" d="M56.7,82.86c-5.58,9.65-5.04,18.69,1.19,27.29c-2.27,1.96-4.53,3.89-6.77,5.85c-0.45,0.39-0.83,0.86-1.18,1.34
		c-1.57,2.12-3.99,2.21-6.24,2.53c-6.64,0.94-12.22-1.45-16.77-6.09c-3.89-3.96-5.9-8.9-6.15-14.5c-0.18-3.95,0.23-7.8,1.88-11.44
		c2.75-6.07,7.33-9.92,13.88-11.38C44.53,74.68,50.72,78.35,56.7,82.86z"/>
	<path class="st2" d="M86.99,10.4c5.31,0.19,10.17,1.64,14.35,4.77c4.8,3.6,7.77,8.44,8.55,14.5c0.54,4.17-0.44,8.06-2.07,11.85
		c-0.26,0.61-0.49,0.83-1.25,0.65c-2.82-0.66-5.66-1.45-8.53-1.71c-2.23-0.21-4.56,0.12-6.79,0.5c-4.31,0.73-8.02,2.7-11.11,5.84
		c-0.21,0.21-0.93,0.24-1.16,0.05c-2.76-2.4-5.99-3.85-9.43-4.98c-0.89-0.29-1.78-1.19-2.25-2.04c-3.04-5.47-2.95-11.05-0.33-16.66
		c2.79-5.99,7.34-9.96,13.72-11.68C82.74,10.93,84.89,10.75,86.99,10.4z"/>
	<path class="st2" d="M120.47,69.71c4.43,0.66,8.29,2.44,11.61,5.37c3.76,3.31,6.42,7.37,7.23,12.32
		c1.94,11.92-5.41,22.27-16.59,24.66c-7.85,1.67-14.73-0.44-20.85-5.41c-0.85-0.69-1.53-1.56-2.33-2.31
		c-0.77-0.72-0.47-1.55-0.36-2.39c0.28-2.12,0.74-4.26,0.68-6.38c-0.07-2.36-0.55-4.72-1.02-7.05c-0.2-0.99-0.1-1.2,0.93-1.3
		c8.64-0.87,15.12-5.01,19.01-12.89C119.47,72.89,119.89,71.32,120.47,69.71z"/>
	<path class="st2" d="M139.96,100.84c3.04-9.69,1.96-18.44-5.07-26.15c1.18-0.37,2.29-0.67,3.37-1.05
		c4.24-1.48,7.65-4.13,10.53-7.52c0.57-0.67,1.06-1.42,1.7-2c0.4-0.36,1.02-0.68,1.53-0.66c5.03,0.22,9.61,1.71,13.32,5.23
		c3.04,2.89,5.54,6.2,6.72,10.29c0.55,1.9,0.85,3.9,1.04,5.88c0.55,5.78-0.98,11.06-4.24,15.82c-3.67,5.37-8.86,8.28-15.25,9.11
		c-0.42,0.05-1.05-0.15-1.3-0.46c-3.26-3.98-7.36-6.69-12.19-8.37C139.99,100.93,139.9,100.8,139.96,100.84z"/>
	<path class="st2" d="M120.29,142.18c5.84-9.38,5.47-18.56-0.78-27.67c1.12-0.19,2.1-0.36,3.08-0.53c5.97-1.05,10.77-4.03,14.5-8.77
		c0.43-0.55,0.74-1.21,1.25-1.67c0.29-0.26,0.91-0.4,1.29-0.29c3.57,1.12,6.84,2.8,9.44,5.54c2.81,2.96,5.06,6.29,6.09,10.32
		c0.8,3.12,0.66,6.27,0.36,9.43c-0.5,5.33-3.04,9.68-6.71,13.35c-3.05,3.05-6.87,4.78-11.18,5.39c-5.61,0.8-10.74-0.45-15.44-3.57
		C121.52,143.28,120.94,142.71,120.29,142.18z"/>
	<path class="st2" d="M78.83,119.14c-0.51,2.05-1.12,4.31-1.63,6.59c-0.97,4.37-0.25,8.58,1.4,12.67c0.87,2.16,1.97,4.18,3.56,5.92
		c0.17,0.18,0.18,0.79,0.02,0.94c-1.24,1.17-2.43,2.45-3.84,3.38c-3.91,2.59-8.27,3.68-12.94,3.02c-4.48-0.64-8.35-2.63-11.59-5.8
		c-3.43-3.37-5.32-7.46-5.93-12.24c-0.76-5.95,0.74-11.2,4.48-15.81c1.88-2.32,4.26-4.08,6.96-5.36c0.24-0.11,0.75,0.03,0.96,0.23
		c3.83,3.65,8.41,5.65,13.64,6.16C75.61,119.01,77.28,119.05,78.83,119.14z"/>
	<path class="st2" d="M54.6,43.13c-12.33,7.11-15.3,17.52-11.25,30.7c-1.04,0-2.15-0.05-3.25,0.01c-3.47,0.18-6.8,0.97-9.85,2.68
		c-1.4,0.78-2.56,0.78-3.86-0.22c-3.85-2.96-6.79-6.56-7.9-11.35c-1.1-4.71-0.55-9.35,1.22-13.84c2.53-6.42,6.95-10.92,13.49-13.34
		c5.62-2.08,10.92-1.33,16.07,1.47C51.19,40.28,53.03,41.43,54.6,43.13z"/>
	<path class="st2" d="M77.97,48.9c-5.38,7.11-6.37,14.89-3.69,23.29c-1.43,0.33-2.8,0.57-4.13,0.95c-4.34,1.25-7.93,3.68-10.97,6.98
		c-0.94,1.02-1.32,1.02-2.39,0.16c-2.55-2.03-5.34-3.62-8.38-4.81c-1.53-0.6-2.48-1.82-3.13-3.27c-1.55-3.45-1.88-7.03-1.4-10.78
		c0.62-4.86,2.6-9,6.14-12.38c3.04-2.91,6.69-4.64,10.81-5.28c6.26-0.97,11.85,0.62,16.73,4.68C77.71,48.59,77.84,48.76,77.97,48.9z
		"/>
	<path class="st2" d="M107.11,151.73c-0.06,2.36-0.83,4.41-1.99,6.31c-3.74,6.14-9.36,9.62-16.34,10.55
		c-6.6,0.89-12.69-0.81-17.9-5.14c-2.75-2.28-4.91-5.01-6.06-8.44c-0.1-0.29-0.12-0.61-0.21-1.09c7.81,0.73,14.37-1.73,19.72-7.41
		C91.08,152.19,98.63,153.89,107.11,151.73z"/>
	<path class="st2" d="M47.39,121.63c-2.34,6.14-2.04,12.22,0.05,18.26c2.18,6.33,6.95,10.12,12.92,12.86
		c-0.31,0.27-0.5,0.54-0.76,0.66c-3.55,1.59-7.19,2.38-11.14,1.77c-5.16-0.8-9.6-2.95-13.18-6.7c-3.15-3.3-5.2-7.21-5.59-11.86
		c-0.4-4.78,0.23-9.35,2.74-13.55c0.85-1.42,1.91-1.93,3.51-1.61c3.35,0.66,6.71,1.09,10.09,0.19
		C46.4,121.55,46.8,121.63,47.39,121.63z"/>
	<path class="st2" d="M105.85,161.13c2.07-2.83,3.08-6.04,3.64-9.43c0.09-0.54,0.51-1.23,0.97-1.46c3.18-1.59,5.95-3.71,8.36-6.29
		c6.13,5.18,13.25,6.44,20.89,5.44c-2.15,8.53-8.15,12.94-16.11,14.95C116.95,166.02,109.55,164.63,105.85,161.13z"/>
	<path class="st2" d="M65.29,40.9c-1.58,0.27-2.91,0.5-4.25,0.72c-1.07,0.17-2.13,0.45-3.2,0.45c-0.63,0-1.43-0.25-1.88-0.68
		c-4.72-4.46-10.33-6.64-16.77-6.82c-0.07,0-0.13-0.04-0.3-0.1c-0.18-1.24,0.35-2.35,0.88-3.42c2.12-4.32,5.53-7.31,9.87-9.24
		c5.09-2.26,10.26-2.07,15.6-0.42C62.51,27.85,61.84,34.29,65.29,40.9z"/>
	<path class="st2" d="M16.54,66.43c1.82,5.35,5.33,9.14,9.77,12.41c-3.34,3.24-5.45,7.06-6.69,11.37c-1.24,4.31-1.54,8.66-0.46,13.2
		c-2.77-0.77-4.78-2.34-6.47-4.29c-4.49-5.22-5.78-11.39-4.82-18.04c0.7-4.88,2.98-9.09,6.38-12.67
		C14.88,67.77,15.63,67.23,16.54,66.43z"/>
	<path class="st2" d="M14.19,103.57c1.66,0.77,3.22,1.57,4.84,2.22c0.81,0.32,1.29,0.79,1.53,1.58c1.57,5.05,4.88,8.7,9.26,11.48
		c0.65,0.41,1.33,0.78,2.08,1.21c-3.21,4.12-4.28,8.97-4.73,14.35c-1.26-0.45-2.38-0.7-3.37-1.22c-6.28-3.29-10.3-8.34-11.73-15.35
		C11.05,112.79,11.85,108.02,14.19,103.57z"/>
	<path class="st2" d="M112.11,34.44c0.5-6.88-1.59-12.81-5.93-17.99c9.88-5.42,25.67,0.2,28.44,10.38c-4.17-0.48-8.2-0.2-12.09,1.21
		C118.64,29.45,115.17,31.51,112.11,34.44z"/>
	<path class="st2" d="M157.09,132.4c1.65-7.15,0.92-13.9-2.56-20.46c6.32-1.23,11.43-4.33,15.44-9.23
		c2.13,2.28,3.41,9.99,0.89,16.48C168.34,125.7,163.8,130.2,157.09,132.4z"/>
	<path class="st2" d="M167.69,67.79c-4.51-3.92-9.57-6.35-15.63-6.74c2.83-5.78,2.98-11.63,1.32-17.61
		C162.85,45.99,171.75,56.18,167.69,67.79z"/>
</g>
<g id="Vrstva_3">
	<path d="M84.64,88.67c4.18,5.42,3.48,15.31-2.26,17.29c-5.44,1.88-12.24,2.44-16.42-2.97c-4.18-5.42-2.38-11.66,1.27-16.64
		C71.07,81.12,80.45,83.26,84.64,88.67z"/>
	<path d="M110.68,66.09c-2.02,6-12.53,8.68-17.25,5.2c-4.48-3.3-8.44-7.23-6.43-13.23c2.02-6,10.08-7.67,15.98-6.73
		C109.88,52.43,112.69,60.09,110.68,66.09z"/>
	<path d="M145.87,120.04c3.73,4.83,2.92,13.78-2.34,15.66c-4.99,1.78-11.2,2.41-14.93-2.42s-1.98-10.5,1.43-15.05
		C133.62,113.44,142.15,115.22,145.87,120.04z"/>
	<path d="M38.92,57.96c-1.38,4.09-5.85,7.16-9.65,5.99c-3.99-1.23-6.35-6.87-4.97-10.96s5.34-7.23,9.77-6.41
		C38.25,47.35,40.3,53.86,38.92,57.96z"/>
	<path d="M165.66,87.52c-0.52,5.48-5.24,10.58-10.35,10.23c-5.38-0.37-10-6.7-9.47-12.19c0.52-5.48,4.62-11.6,10.39-10.79
		C161.91,75.58,166.18,82.04,165.66,87.52z"/>
	<path d="M95.53,30.53c-1.38,4.09-6.51,6.94-11.1,5.51c-4.83-1.51-8-7.42-6.62-11.52c1.38-4.09,5.89-7.04,11.22-5.92
		C94.05,19.65,96.9,26.43,95.53,30.53z"/>
	<path d="M47.39,98.39c-0.47,4.99-4.96,9.6-9.84,9.26c-5.14-0.36-9.58-6.14-9.1-11.13c0.47-4.99,4.32-9.55,9.87-9.77
		C43.55,86.56,47.87,93.4,47.39,98.39z"/>
	<path d="M93.34,157.28c-0.28,2.89-3.84,5.48-7.83,5.17c-4.21-0.33-7.96-3.79-7.69-6.69c0.28-2.89,3.32-5.47,7.85-5.47
		C89.93,150.31,93.61,154.39,93.34,157.28z"/>
	<path d="M43.58,136.1c1.78,3.37,1.27,8.3-1.37,8.47c-2.5,0.16-5.58-0.54-7.36-3.91s-0.84-6.29,0.91-8.29
		C37.6,130.27,41.8,132.73,43.58,136.1z"/>
</g>
</svg>
